<mxfile host="app.diagrams.net" agent="Mozilla/5.0 (Windows NT 10.0; Win64; x64) AppleWebKit/537.36 (KHTML, like Gecko) Chrome/138.0.0.0 Safari/537.36 OPR/122.0.0.0" version="28.2.7">
  <diagram name="Trang-1" id="U0eqv_PHN2UgsvN3GRaW">
    <mxGraphModel dx="1168" dy="751" grid="1" gridSize="10" guides="1" tooltips="1" connect="1" arrows="1" fold="1" page="1" pageScale="1" pageWidth="827" pageHeight="1169" math="0" shadow="0">
      <root>
        <mxCell id="0" />
        <mxCell id="1" parent="0" />
        <mxCell id="XAkEEadueyZbBo3X2ymv-1" value="AUTHOR (&lt;u&gt;AuthorID,&lt;/u&gt;&amp;nbsp;AuthorName, AuthorPhone, AuthorEmail, Expertise)" style="text;html=1;whiteSpace=wrap;strokeColor=none;fillColor=none;align=left;verticalAlign=middle;rounded=0;" parent="1" vertex="1">
          <mxGeometry x="140" y="140" width="390" height="30" as="geometry" />
        </mxCell>
        <mxCell id="XAkEEadueyZbBo3X2ymv-6" value="" style="ellipse;whiteSpace=wrap;html=1;align=center;dashed=1;dashPattern=1 1;fillColor=none;" parent="1" vertex="1">
          <mxGeometry x="270" y="205" width="60" height="20" as="geometry" />
        </mxCell>
        <mxCell id="XAkEEadueyZbBo3X2ymv-2" value="AUTHOR ASSIGNMENT(&lt;u&gt;AuthorID,&lt;/u&gt;&amp;nbsp;&lt;u&gt;ChapterID&lt;/u&gt;, AuthorPosition, AuthorType)" style="text;html=1;whiteSpace=wrap;strokeColor=none;fillColor=none;align=left;verticalAlign=middle;rounded=0;" parent="1" vertex="1">
          <mxGeometry x="140" y="200" width="650" height="30" as="geometry" />
        </mxCell>
        <mxCell id="XAkEEadueyZbBo3X2ymv-4" value="" style="elbow=vertical;endArrow=classic;html=1;rounded=0;endSize=8;startSize=8;edgeStyle=elbowEdgeStyle;" parent="1" edge="1">
          <mxGeometry width="50" height="50" relative="1" as="geometry">
            <mxPoint x="300" y="210" as="sourcePoint" />
            <mxPoint x="220" y="160" as="targetPoint" />
            <Array as="points">
              <mxPoint x="250" y="190" />
            </Array>
          </mxGeometry>
        </mxCell>
        <mxCell id="nhwhdmvn6pqlT2531rBD-1" value="" style="ellipse;whiteSpace=wrap;html=1;align=center;dashed=1;dashPattern=1 1;fillColor=none;" vertex="1" parent="1">
          <mxGeometry x="330" y="205" width="60" height="20" as="geometry" />
        </mxCell>
        <mxCell id="nhwhdmvn6pqlT2531rBD-2" value="CHAPTER (&lt;u&gt;ChapterID&lt;/u&gt;, &lt;u&gt;BookNpr&lt;/u&gt;, ChapterNumber, ChapterTitle)" style="text;html=1;whiteSpace=wrap;strokeColor=none;fillColor=none;align=left;verticalAlign=middle;rounded=0;" vertex="1" parent="1">
          <mxGeometry x="140" y="260" width="650" height="30" as="geometry" />
        </mxCell>
        <mxCell id="nhwhdmvn6pqlT2531rBD-3" value="" style="edgeStyle=elbowEdgeStyle;elbow=vertical;endArrow=classic;html=1;curved=0;rounded=0;endSize=8;startSize=8;exitX=0.339;exitY=0.9;exitDx=0;exitDy=0;exitPerimeter=0;" edge="1" parent="1" source="XAkEEadueyZbBo3X2ymv-2">
          <mxGeometry width="50" height="50" relative="1" as="geometry">
            <mxPoint x="280" y="230" as="sourcePoint" />
            <mxPoint x="230" y="270" as="targetPoint" />
          </mxGeometry>
        </mxCell>
        <mxCell id="nhwhdmvn6pqlT2531rBD-4" value="BOOK (&lt;u&gt;BookNpr,&lt;/u&gt;&amp;nbsp;BookISPN, BookTitle, BookPrice, EditorID)" style="text;html=1;whiteSpace=wrap;strokeColor=none;fillColor=none;align=left;verticalAlign=middle;rounded=0;" vertex="1" parent="1">
          <mxGeometry x="140" y="320" width="390" height="30" as="geometry" />
        </mxCell>
        <mxCell id="nhwhdmvn6pqlT2531rBD-5" value="" style="ellipse;whiteSpace=wrap;html=1;align=center;dashed=1;dashPattern=1 1;fillColor=none;" vertex="1" parent="1">
          <mxGeometry x="260" y="265" width="60" height="20" as="geometry" />
        </mxCell>
        <mxCell id="nhwhdmvn6pqlT2531rBD-6" value="" style="ellipse;whiteSpace=wrap;html=1;align=center;dashed=1;dashPattern=1 1;fillColor=none;" vertex="1" parent="1">
          <mxGeometry x="414" y="325" width="50" height="20" as="geometry" />
        </mxCell>
        <mxCell id="nhwhdmvn6pqlT2531rBD-7" value="EDITOR (&lt;u&gt;EditorID,&lt;/u&gt;&amp;nbsp;EditorLName, EditorFName, EditorInstitution)" style="text;html=1;whiteSpace=wrap;strokeColor=none;fillColor=none;align=left;verticalAlign=middle;rounded=0;" vertex="1" parent="1">
          <mxGeometry x="140" y="380" width="390" height="30" as="geometry" />
        </mxCell>
        <mxCell id="nhwhdmvn6pqlT2531rBD-8" value="" style="elbow=vertical;endArrow=classic;html=1;rounded=0;endSize=8;startSize=8;edgeStyle=elbowEdgeStyle;exitX=0.5;exitY=1;exitDx=0;exitDy=0;entryX=0.179;entryY=0.333;entryDx=0;entryDy=0;entryPerimeter=0;" edge="1" parent="1" source="nhwhdmvn6pqlT2531rBD-6" target="nhwhdmvn6pqlT2531rBD-7">
          <mxGeometry width="50" height="50" relative="1" as="geometry">
            <mxPoint x="290" y="345" as="sourcePoint" />
            <mxPoint x="210" y="380" as="targetPoint" />
            <Array as="points">
              <mxPoint x="240" y="365" />
            </Array>
          </mxGeometry>
        </mxCell>
        <mxCell id="nhwhdmvn6pqlT2531rBD-10" value="" style="ellipse;whiteSpace=wrap;html=1;align=center;dashed=1;dashPattern=1 1;fillColor=none;" vertex="1" parent="1">
          <mxGeometry x="300" y="445" width="50" height="25" as="geometry" />
        </mxCell>
        <mxCell id="nhwhdmvn6pqlT2531rBD-9" value="ORDER LINE (&lt;u&gt;OrderLineNpr,&lt;/u&gt;&amp;nbsp;BookNpr, OLPrice, OLDiscount, OLQuantity, OrderID)" style="text;html=1;whiteSpace=wrap;strokeColor=none;fillColor=none;align=left;verticalAlign=middle;rounded=0;" vertex="1" parent="1">
          <mxGeometry x="140" y="440" width="650" height="30" as="geometry" />
        </mxCell>
        <mxCell id="nhwhdmvn6pqlT2531rBD-11" value="" style="edgeStyle=elbowEdgeStyle;elbow=vertical;endArrow=classic;html=1;curved=0;rounded=0;endSize=8;startSize=8;exitX=0.5;exitY=1;exitDx=0;exitDy=0;" edge="1" parent="1" source="nhwhdmvn6pqlT2531rBD-5">
          <mxGeometry width="50" height="50" relative="1" as="geometry">
            <mxPoint x="330" y="290" as="sourcePoint" />
            <mxPoint x="200" y="330" as="targetPoint" />
          </mxGeometry>
        </mxCell>
        <mxCell id="nhwhdmvn6pqlT2531rBD-12" value="" style="edgeStyle=elbowEdgeStyle;elbow=vertical;endArrow=classic;html=1;curved=0;rounded=0;endSize=8;startSize=8;entryX=0.5;entryY=0;entryDx=0;entryDy=0;" edge="1" parent="1" target="nhwhdmvn6pqlT2531rBD-10">
          <mxGeometry width="50" height="50" relative="1" as="geometry">
            <mxPoint x="70" y="390" as="sourcePoint" />
            <mxPoint x="210" y="340" as="targetPoint" />
          </mxGeometry>
        </mxCell>
        <mxCell id="nhwhdmvn6pqlT2531rBD-13" value="" style="line;strokeWidth=2;direction=south;html=1;" vertex="1" parent="1">
          <mxGeometry x="70" y="350" width="2" height="50" as="geometry" />
        </mxCell>
        <mxCell id="nhwhdmvn6pqlT2531rBD-14" value="" style="line;strokeWidth=2;html=1;" vertex="1" parent="1">
          <mxGeometry x="70" y="345" width="130" height="10" as="geometry" />
        </mxCell>
        <mxCell id="nhwhdmvn6pqlT2531rBD-20" value="" style="line;strokeWidth=2;direction=south;html=1;" vertex="1" parent="1">
          <mxGeometry x="198" y="340" width="2" height="10" as="geometry" />
        </mxCell>
        <mxCell id="nhwhdmvn6pqlT2531rBD-21" value="ORDER (&lt;u&gt;OrderID,&lt;/u&gt;&amp;nbsp;OrderDate, OrderDeliveryDate, CustID)" style="text;html=1;whiteSpace=wrap;strokeColor=none;fillColor=none;align=left;verticalAlign=middle;rounded=0;" vertex="1" parent="1">
          <mxGeometry x="140" y="500" width="650" height="30" as="geometry" />
        </mxCell>
        <mxCell id="nhwhdmvn6pqlT2531rBD-22" value="" style="ellipse;whiteSpace=wrap;html=1;align=center;dashed=1;dashPattern=1 1;fillColor=none;" vertex="1" parent="1">
          <mxGeometry x="536" y="443" width="50" height="24" as="geometry" />
        </mxCell>
        <mxCell id="nhwhdmvn6pqlT2531rBD-23" value="" style="elbow=vertical;endArrow=classic;html=1;rounded=0;endSize=8;startSize=8;edgeStyle=elbowEdgeStyle;exitX=0.5;exitY=1;exitDx=0;exitDy=0;entryX=0.179;entryY=0.333;entryDx=0;entryDy=0;entryPerimeter=0;" edge="1" parent="1" source="nhwhdmvn6pqlT2531rBD-22">
          <mxGeometry width="50" height="50" relative="1" as="geometry">
            <mxPoint x="439.5" y="467" as="sourcePoint" />
            <mxPoint x="210.5" y="512" as="targetPoint" />
            <Array as="points">
              <mxPoint x="240.5" y="487" />
            </Array>
          </mxGeometry>
        </mxCell>
        <mxCell id="nhwhdmvn6pqlT2531rBD-24" value="WHOLESALER (&lt;u&gt;CustID,&lt;/u&gt;&amp;nbsp;CustName)" style="text;html=1;whiteSpace=wrap;strokeColor=none;fillColor=none;align=left;verticalAlign=middle;rounded=0;" vertex="1" parent="1">
          <mxGeometry x="140" y="560" width="650" height="30" as="geometry" />
        </mxCell>
        <mxCell id="nhwhdmvn6pqlT2531rBD-25" value="" style="ellipse;whiteSpace=wrap;html=1;align=center;dashed=1;dashPattern=1 1;fillColor=none;" vertex="1" parent="1">
          <mxGeometry x="410" y="503" width="40" height="24" as="geometry" />
        </mxCell>
        <mxCell id="nhwhdmvn6pqlT2531rBD-26" value="" style="edgeStyle=elbowEdgeStyle;elbow=vertical;endArrow=classic;html=1;curved=0;rounded=0;endSize=8;startSize=8;exitX=0.5;exitY=1;exitDx=0;exitDy=0;" edge="1" parent="1" source="nhwhdmvn6pqlT2531rBD-25">
          <mxGeometry width="50" height="50" relative="1" as="geometry">
            <mxPoint x="380" y="527" as="sourcePoint" />
            <mxPoint x="250" y="570" as="targetPoint" />
          </mxGeometry>
        </mxCell>
      </root>
    </mxGraphModel>
  </diagram>
</mxfile>
